<svg width="42" height="42" viewBox="0 0 42 42" fill="none" xmlns="http://www.w3.org/2000/svg">
<path d="M21.125 16.875H23.7031C23.8408 17.4128 24.1536 17.8894 24.5921 18.2298C25.0306 18.5701 25.5699 18.7549 26.125 18.7549C26.6801 18.7549 27.2194 18.5701 27.6579 18.2298C28.0964 17.8894 28.4092 17.4128 28.5469 16.875H34.875C35.0408 16.875 35.1997 16.8091 35.3169 16.6919C35.4342 16.5747 35.5 16.4158 35.5 16.25C35.5 16.0842 35.4342 15.9253 35.3169 15.8081C35.1997 15.6908 35.0408 15.625 34.875 15.625H28.5469C28.4092 15.0872 28.0964 14.6106 27.6579 14.2702C27.2194 13.9298 26.6801 13.7451 26.125 13.7451C25.5699 13.7451 25.0306 13.9298 24.5921 14.2702C24.1536 14.6106 23.8408 15.0872 23.7031 15.625H21.125C20.9592 15.625 20.8003 15.6908 20.6831 15.8081C20.5658 15.9253 20.5 16.0842 20.5 16.25C20.5 16.4158 20.5658 16.5747 20.6831 16.6919C20.8003 16.8091 20.9592 16.875 21.125 16.875ZM26.125 15C26.3722 15 26.6139 15.0733 26.8195 15.2107C27.025 15.348 27.1852 15.5432 27.2798 15.7716C27.3745 16.0001 27.3992 16.2514 27.351 16.4939C27.3028 16.7363 27.1837 16.9591 27.0089 17.1339C26.8341 17.3087 26.6113 17.4277 26.3689 17.476C26.1264 17.5242 25.8751 17.4995 25.6466 17.4048C25.4182 17.3102 25.223 17.15 25.0857 16.9445C24.9483 16.7389 24.875 16.4972 24.875 16.25C24.875 15.9185 25.0067 15.6005 25.2411 15.3661C25.4755 15.1317 25.7935 15 26.125 15ZM34.875 23.125H33.5469C33.4092 22.5872 33.0964 22.1106 32.6579 21.7702C32.2194 21.4298 31.6801 21.2451 31.125 21.2451C30.5699 21.2451 30.0306 21.4298 29.5921 21.7702C29.1536 22.1106 28.8408 22.5872 28.7031 23.125H21.125C20.9592 23.125 20.8003 23.1908 20.6831 23.3081C20.5658 23.4253 20.5 23.5842 20.5 23.75C20.5 23.9158 20.5658 24.0747 20.6831 24.1919C20.8003 24.3091 20.9592 24.375 21.125 24.375H28.7031C28.8408 24.9128 29.1536 25.3894 29.5921 25.7298C30.0306 26.0701 30.5699 26.2549 31.125 26.2549C31.6801 26.2549 32.2194 26.0701 32.6579 25.7298C33.0964 25.3894 33.4092 24.9128 33.5469 24.375H34.875C35.0408 24.375 35.1997 24.3091 35.3169 24.1919C35.4342 24.0747 35.5 23.9158 35.5 23.75C35.5 23.5842 35.4342 23.4253 35.3169 23.3081C35.1997 23.1908 35.0408 23.125 34.875 23.125ZM31.125 25C30.8778 25 30.6361 24.9267 30.4305 24.7893C30.225 24.652 30.0648 24.4568 29.9701 24.2284C29.8755 23.9999 29.8508 23.7486 29.899 23.5061C29.9472 23.2637 30.0663 23.0409 30.2411 22.8661C30.4159 22.6913 30.6387 22.5722 30.8811 22.524C31.1236 22.4758 31.3749 22.5005 31.6034 22.5951C31.8318 22.6898 32.027 22.85 32.1643 23.0555C32.3017 23.2611 32.375 23.5028 32.375 23.75C32.375 24.0815 32.2433 24.3995 32.0089 24.6339C31.7745 24.8683 31.4565 25 31.125 25Z" fill="#667C8A"/>
</svg>
