<svg width="23" height="23" viewBox="0 0 23 23" fill="none" xmlns="http://www.w3.org/2000/svg">
<g clip-path="url(#clip0_3515_20197)">
<path d="M11.4898 1.91666C6.19977 1.91666 1.91602 6.20999 1.91602 11.5C1.91602 16.79 6.19977 21.0833 11.4898 21.0833C16.7893 21.0833 21.0827 16.79 21.0827 11.5C21.0827 6.20999 16.7893 1.91666 11.4898 1.91666ZM18.131 7.66666H15.3039C14.9973 6.46874 14.5564 5.31874 13.9814 4.25499C15.7448 4.85874 17.211 6.08541 18.131 7.66666ZM11.4993 3.87166C12.2948 5.02166 12.9177 6.29624 13.3298 7.66666H9.66893C10.081 6.29624 10.7039 5.02166 11.4993 3.87166ZM4.08185 13.4167C3.92852 12.8033 3.83268 12.1612 3.83268 11.5C3.83268 10.8387 3.92852 10.1967 4.08185 9.58332H7.32102C7.24435 10.2158 7.18685 10.8483 7.18685 11.5C7.18685 12.1517 7.24435 12.7842 7.32102 13.4167H4.08185ZM4.86768 15.3333H7.69477C8.00143 16.5312 8.44227 17.6812 9.01727 18.745C7.25393 18.1412 5.78768 16.9242 4.86768 15.3333ZM7.69477 7.66666H4.86768C5.78768 6.07582 7.25393 4.85874 9.01727 4.25499C8.44227 5.31874 8.00143 6.46874 7.69477 7.66666ZM11.4993 19.1283C10.7039 17.9783 10.081 16.7037 9.66893 15.3333H13.3298C12.9177 16.7037 12.2948 17.9783 11.4993 19.1283ZM13.7418 13.4167H9.25685C9.1706 12.7842 9.10352 12.1517 9.10352 11.5C9.10352 10.8483 9.1706 10.2062 9.25685 9.58332H13.7418C13.8281 10.2062 13.8952 10.8483 13.8952 11.5C13.8952 12.1517 13.8281 12.7842 13.7418 13.4167ZM13.9814 18.745C14.5564 17.6812 14.9973 16.5312 15.3039 15.3333H18.131C17.211 16.9146 15.7448 18.1412 13.9814 18.745ZM15.6777 13.4167C15.7543 12.7842 15.8118 12.1517 15.8118 11.5C15.8118 10.8483 15.7543 10.2158 15.6777 9.58332H18.9168C19.0702 10.1967 19.166 10.8387 19.166 11.5C19.166 12.1612 19.0702 12.8033 18.9168 13.4167H15.6777Z" fill="#323232"/>
</g>
<defs>
<clipPath id="clip0_3515_20197">
<rect width="23" height="23" fill="white"/>
</clipPath>
</defs>
</svg>
