<svg width="23" height="23" viewBox="0 0 23 23" fill="none" xmlns="http://www.w3.org/2000/svg">
<g clip-path="url(#clip0_3523_741)">
<path d="M3.83398 10.0625C3.03857 10.0625 2.39648 10.7046 2.39648 11.5C2.39648 12.2954 3.03857 12.9375 3.83398 12.9375C4.6294 12.9375 5.27148 12.2954 5.27148 11.5C5.27148 10.7046 4.6294 10.0625 3.83398 10.0625ZM3.83398 4.3125C3.03857 4.3125 2.39648 4.95458 2.39648 5.75C2.39648 6.54542 3.03857 7.1875 3.83398 7.1875C4.6294 7.1875 5.27148 6.54542 5.27148 5.75C5.27148 4.95458 4.6294 4.3125 3.83398 4.3125ZM3.83398 15.8125C3.03857 15.8125 2.39648 16.4642 2.39648 17.25C2.39648 18.0358 3.04815 18.6875 3.83398 18.6875C4.61982 18.6875 5.27148 18.0358 5.27148 17.25C5.27148 16.4642 4.6294 15.8125 3.83398 15.8125ZM6.70898 18.2083H20.1257V16.2917H6.70898V18.2083ZM6.70898 12.4583H20.1257V10.5417H6.70898V12.4583ZM6.70898 4.79167V6.70833H20.1257V4.79167H6.70898Z" fill="#323232"/>
</g>
<defs>
<clipPath id="clip0_3523_741">
<rect width="23" height="23" fill="white"/>
</clipPath>
</defs>
</svg>
