<svg width="23" height="23" viewBox="0 0 23 23" fill="none" xmlns="http://www.w3.org/2000/svg">
<g clip-path="url(#clip0_3515_20204)">
<path d="M11.5007 21.0833C12.5548 21.0833 13.4173 20.2208 13.4173 19.1667H9.58398C9.58398 20.2208 10.4465 21.0833 11.5007 21.0833ZM17.2507 15.3333V10.5417C17.2507 7.59959 15.6886 5.13668 12.9382 4.48501V3.83334C12.9382 3.03793 12.2961 2.39584 11.5007 2.39584C10.7052 2.39584 10.0632 3.03793 10.0632 3.83334V4.48501C7.32232 5.13668 5.75065 7.59001 5.75065 10.5417V15.3333L3.83398 17.25V18.2083H19.1673V17.25L17.2507 15.3333ZM15.334 16.2917H7.66732V10.5417C7.66732 8.16501 9.1144 6.22918 11.5007 6.22918C13.8869 6.22918 15.334 8.16501 15.334 10.5417V16.2917Z" fill="#323232"/>
</g>
<defs>
<clipPath id="clip0_3515_20204">
<rect width="23" height="23" fill="white"/>
</clipPath>
</defs>
</svg>
