<svg width="31" height="31" viewBox="0 0 31 31" fill="none" xmlns="http://www.w3.org/2000/svg">
<g clip-path="url(#clip0_3514_20110)" filter="url(#filter0_d_3514_20110)">
<path d="M23.166 3.83333H7.83268C6.76893 3.83333 5.9256 4.68624 5.9256 5.74999L5.91602 17.25C5.91602 18.3137 6.76893 19.1667 7.83268 19.1667H23.166C24.2298 19.1667 25.0827 18.3137 25.0827 17.25V5.74999C25.0827 4.68624 24.2298 3.83333 23.166 3.83333ZM23.166 17.25H7.83268V11.5H23.166V17.25ZM23.166 7.66666H7.83268V5.74999H23.166V7.66666Z" fill="#323232"/>
<g clip-path="url(#clip1_3514_20110)">
<path d="M-6 7C-9.32 7 -12 9.68 -12 13C-12 16.32 -9.32 19 -6 19C-2.68 19 0 16.32 0 13C0 9.68 -2.68 7 -6 7ZM-6 -17C-9.32 -17 -12 -14.32 -12 -11C-12 -7.68 -9.32 -5 -6 -5C-2.68 -5 0 -7.68 0 -11C0 -14.32 -2.68 -17 -6 -17ZM-6 31C-9.32 31 -12 33.72 -12 37C-12 40.28 -9.28 43 -6 43C-2.72 43 0 40.28 0 37C0 33.72 -2.68 31 -6 31ZM6 41H62V33H6V41ZM6 17H62V9H6V17ZM6 -15V-7H62V-15H6Z" fill="#323232"/>
</g>
</g>
<defs>
<filter id="filter0_d_3514_20110" x="0" y="0" width="31" height="31" filterUnits="userSpaceOnUse" color-interpolation-filters="sRGB">
<feFlood flood-opacity="0" result="BackgroundImageFix"/>
<feColorMatrix in="SourceAlpha" type="matrix" values="0 0 0 0 0 0 0 0 0 0 0 0 0 0 0 0 0 0 127 0" result="hardAlpha"/>
<feOffset dy="4"/>
<feGaussianBlur stdDeviation="2"/>
<feComposite in2="hardAlpha" operator="out"/>
<feColorMatrix type="matrix" values="0 0 0 0 0 0 0 0 0 0 0 0 0 0 0 0 0 0 0.25 0"/>
<feBlend mode="normal" in2="BackgroundImageFix" result="effect1_dropShadow_3514_20110"/>
<feBlend mode="normal" in="SourceGraphic" in2="effect1_dropShadow_3514_20110" result="shape"/>
</filter>
<clipPath id="clip0_3514_20110">
<rect width="23" height="23" fill="white" transform="translate(4)"/>
</clipPath>
<clipPath id="clip1_3514_20110">
<rect width="96" height="96" fill="white" transform="translate(-22 -35)"/>
</clipPath>
</defs>
</svg>
