<svg width="18" height="18" viewBox="0 0 18 18" fill="none" xmlns="http://www.w3.org/2000/svg">
<path d="M15.4123 14.7033L11.0885 10.5003C11.7594 9.6571 12.1224 8.62619 12.1224 7.54186C12.1224 6.24391 11.6013 5.02688 10.6589 4.10925C9.71657 3.19162 8.46121 2.68668 7.1276 2.68668C5.79399 2.68668 4.53864 3.19323 3.59629 4.10925C2.65227 5.02526 2.13281 6.24391 2.13281 7.54186C2.13281 8.8382 2.65394 10.0585 3.59629 10.9745C4.53864 11.8921 5.79233 12.397 7.1276 12.397C8.24311 12.397 9.302 12.0442 10.1694 11.3936L14.4933 15.595C14.5059 15.6073 14.521 15.6171 14.5376 15.6238C14.5541 15.6305 14.5719 15.6339 14.5898 15.6339C14.6078 15.6339 14.6255 15.6305 14.6421 15.6238C14.6587 15.6171 14.6737 15.6073 14.6864 15.595L15.4123 14.891C15.425 14.8787 15.435 14.864 15.4419 14.8479C15.4488 14.8318 15.4523 14.8146 15.4523 14.7971C15.4523 14.7797 15.4488 14.7624 15.4419 14.7463C15.435 14.7302 15.425 14.7156 15.4123 14.7033ZM9.76485 10.1054C9.05892 10.79 8.12323 11.1671 7.1276 11.1671C6.13198 11.1671 5.19628 10.79 4.49035 10.1054C3.78609 9.4192 3.39816 8.50966 3.39816 7.54186C3.39816 6.57406 3.78609 5.6629 4.49035 4.97832C5.19628 4.29374 6.13198 3.91666 7.1276 3.91666C8.12323 3.91666 9.06059 4.29212 9.76485 4.97832C10.4691 5.66452 10.857 6.57406 10.857 7.54186C10.857 8.50966 10.4691 9.42082 9.76485 10.1054Z" fill="#667C8A"/>
</svg>
